<?xml version="1.0" encoding="UTF-8" standalone="no"?>
<!-- Created with Inkscape (http://www.inkscape.org/) -->

<svg
   xmlns:dc="http://purl.org/dc/elements/1.1/"
   xmlns:cc="http://creativecommons.org/ns#"
   xmlns:rdf="http://www.w3.org/1999/02/22-rdf-syntax-ns#"
   xmlns:svg="http://www.w3.org/2000/svg"
   xmlns="http://www.w3.org/2000/svg"
   xmlns:sodipodi="http://sodipodi.sourceforge.net/DTD/sodipodi-0.dtd"
   xmlns:inkscape="http://www.inkscape.org/namespaces/inkscape"
   id="svg2"
   version="1.1"
   inkscape:version="0.91 r13725"
   xml:space="preserve"
   width="1000"
   height="1000"
   viewBox="0 0 1000 1000"
   sodipodi:docname="title_page.svg"
   inkscape:export-filename="/home/mvecera/work/PerfCake/perfengineering/manuscript/images/title_page_600dpi.png"
   inkscape:export-xdpi="600.03021"
   inkscape:export-ydpi="600.03021"><metadata
     id="metadata8"><rdf:RDF><cc:Work
         rdf:about=""><dc:format>image/svg+xml</dc:format><dc:type
           rdf:resource="http://purl.org/dc/dcmitype/StillImage" /><dc:title /></cc:Work></rdf:RDF></metadata><defs
     id="defs6" /><sodipodi:namedview
     pagecolor="#ffffff"
     bordercolor="#666666"
     borderopacity="1"
     objecttolerance="10"
     gridtolerance="10"
     guidetolerance="10"
     inkscape:pageopacity="0"
     inkscape:pageshadow="2"
     inkscape:window-width="1600"
     inkscape:window-height="853"
     id="namedview4"
     showgrid="false"
     inkscape:zoom="0.35355339"
     inkscape:cx="536.91143"
     inkscape:cy="685.15379"
     inkscape:window-x="0"
     inkscape:window-y="0"
     inkscape:window-maximized="1"
     inkscape:current-layer="g10"
     inkscape:snap-bbox="true"
     inkscape:snap-page="false"
     inkscape:bbox-paths="true" /><g
     id="g10"
     inkscape:groupmode="layer"
     inkscape:label="ink_ext_XXXXXX"
     transform="matrix(1.25,0,0,-1.25,0,1000)"><path
       inkscape:connector-curvature="0"
       id="path14"
       style="fill:#4a535a;fill-opacity:1;fill-rule:nonzero;stroke:none"
       d="m 0,-49.780313 800,0 0,1164.301413 -800,0 0,-1164.301413 z" /><flowRoot
       xml:space="preserve"
       id="flowRoot14982"
       style="font-style:normal;font-weight:normal;font-size:10px;line-height:125%;font-family:Sans;letter-spacing:0px;word-spacing:0px;fill:#f0f0f0;fill-opacity:1;stroke:none;stroke-width:1px;stroke-linecap:butt;stroke-linejoin:miter;stroke-opacity:1"
       transform="matrix(0.8,0,0,-0.8,145.59981,1053.7356)"><flowRegion
         id="flowRegion14984"><rect
           id="rect14986"
           width="685.38135"
           height="250.00002"
           x="70.974579"
           y="611.22882"
           style="fill:#f0f0f0;fill-opacity:1" /></flowRegion><flowPara
         id="flowPara14988"
         style="font-style:normal;font-variant:normal;font-weight:bold;font-stretch:normal;font-size:80px;font-family:Ubuntu;-inkscape-font-specification:'Ubuntu Bold';fill:#f0f0f0;fill-opacity:1">Performance</flowPara><flowPara
         style="font-style:normal;font-variant:normal;font-weight:bold;font-stretch:normal;font-size:80px;font-family:Ubuntu;-inkscape-font-specification:'Ubuntu Bold';fill:#f0f0f0;fill-opacity:1"
         id="flowPara7725">Engineering</flowPara></flowRoot><flowRoot
       style="font-style:normal;font-weight:normal;font-size:10px;line-height:125%;font-family:Sans;letter-spacing:0px;word-spacing:0px;fill:#f0f0f0;fill-opacity:1;stroke:none;stroke-width:1px;stroke-linecap:butt;stroke-linejoin:miter;stroke-opacity:1"
       id="flowRoot14990"
       xml:space="preserve"
       transform="matrix(0.8,0,0,-0.8,36.8,599.42372)"><flowRegion
         id="flowRegion14992"><rect
           style="fill:#f0f0f0;fill-opacity:1"
           y="611.22882"
           x="70.974579"
           height="250.00002"
           width="685.38135"
           id="rect14994" /></flowRegion><flowPara
         style="font-style:normal;font-variant:normal;font-weight:bold;font-stretch:normal;font-size:40px;font-family:Ubuntu;-inkscape-font-specification:'Ubuntu Bold';fill:#f0f0f0;fill-opacity:1"
         id="flowPara14996">Martin Večeřa</flowPara><flowPara
         style="font-style:normal;font-variant:normal;font-weight:bold;font-stretch:normal;font-size:40px;font-family:Ubuntu;-inkscape-font-specification:'Ubuntu Bold';fill:#f0f0f0;fill-opacity:1"
         id="flowPara7727">Pavel Macík</flowPara></flowRoot><rect
       style="fill:#dd4814;fill-opacity:1;stroke:none;stroke-width:4;stroke-linecap:round;stroke-miterlimit:4;stroke-dasharray:none;stroke-opacity:1"
       id="rect7724"
       width="799.86707"
       height="70.144989"
       x="0.0063239485"
       y="-1066.4608"
       transform="scale(1,-1)" /><g
       transform="matrix(0.81489408,0,0,-0.81489408,195.2,910.92519)"
       id="g3"><g
         id="g5"><g
           id="g7"><path
             style="fill:#ffffff"
             inkscape:connector-curvature="0"
             d="M 502.642,374.706 C 502.664,235.876 390.15,123.363 251.321,123.363 112.492,123.363 0,235.877 0,374.685 c 0,1.575 0.431,2.998 0.453,4.573 l 194.978,0 c -0.129,-1.532 -0.453,-3.02 -0.453,-4.573 0,-31.127 25.238,-56.364 56.343,-56.364 10.268,0 19.78,2.955 28.064,7.744 l 134.127,-120.063 5.134,5.004 -118.985,135.119 c 4.961,8.413 8.024,18.098 8.024,28.56 0,1.553 -0.345,3.041 -0.453,4.573 l 194.914,0 0,0.022 c 0.065,-1.597 0.496,-2.999 0.496,-4.574 z M 61.8,356.845 l -22.994,0 c -5.479,0 -9.923,-4.422 -9.923,-9.815 0,-5.501 4.444,-9.901 9.923,-9.901 l 22.994,0 c 5.457,0 9.901,4.422 9.901,9.901 0,5.393 -4.443,9.815 -9.901,9.815 z M 261.222,182.381 c 0,5.436 -4.379,9.879 -9.858,9.879 -5.479,0 -9.901,-4.444 -9.901,-9.879 l 0,-23.038 c 0,-5.436 4.422,-9.858 9.901,-9.858 5.479,0 9.858,4.422 9.858,9.858 l 0,23.038 z m 202.744,174.464 -23.038,0 c -5.479,0 -9.901,-4.422 -9.901,-9.815 0,-5.501 4.422,-9.901 9.901,-9.901 l 23.038,0 c 5.414,0 9.879,4.422 9.879,9.901 0,5.393 -4.465,9.815 -9.879,9.815 z"
             id="path9" /></g></g><g
         id="g11" /><g
         id="g13" /><g
         id="g15" /><g
         id="g17" /><g
         id="g19" /><g
         id="g21" /><g
         id="g23" /><g
         id="g25" /><g
         id="g27" /><g
         id="g29" /><g
         id="g31" /><g
         id="g33" /><g
         id="g35" /><g
         id="g37" /><g
         id="g39" /></g></g></svg>